<mxfile host="app.diagrams.net" modified="2023-10-22T09:51:31.630Z" agent="Mozilla/5.0 (Macintosh; Intel Mac OS X 10_15_7) AppleWebKit/605.1.15 (KHTML, like Gecko) Version/17.0 Safari/605.1.15" etag="73Wy7WO83dgRinmzLu9J" version="22.0.6" type="github">
  <diagram id="C5RBs43oDa-KdzZeNtuy" name="Page-1">
    <mxGraphModel dx="1122" dy="761" grid="1" gridSize="10" guides="1" tooltips="1" connect="1" arrows="1" fold="1" page="1" pageScale="1" pageWidth="827" pageHeight="1169" math="0" shadow="0">
      <root>
        <mxCell id="WIyWlLk6GJQsqaUBKTNV-0" />
        <mxCell id="WIyWlLk6GJQsqaUBKTNV-1" parent="WIyWlLk6GJQsqaUBKTNV-0" />
        <mxCell id="wFx2M5FxrkZjJIWYtE-n-0" value="START" style="ellipse;whiteSpace=wrap;html=1;" vertex="1" parent="WIyWlLk6GJQsqaUBKTNV-1">
          <mxGeometry x="269" y="50" width="100" height="60" as="geometry" />
        </mxCell>
        <mxCell id="wFx2M5FxrkZjJIWYtE-n-2" value="signup/login" style="shape=parallelogram;perimeter=parallelogramPerimeter;whiteSpace=wrap;html=1;fixedSize=1;" vertex="1" parent="WIyWlLk6GJQsqaUBKTNV-1">
          <mxGeometry x="263" y="204" width="120" height="60" as="geometry" />
        </mxCell>
        <mxCell id="wFx2M5FxrkZjJIWYtE-n-3" value="are you a seller?" style="rhombus;whiteSpace=wrap;html=1;" vertex="1" parent="WIyWlLk6GJQsqaUBKTNV-1">
          <mxGeometry x="269" y="294" width="80" height="80" as="geometry" />
        </mxCell>
        <mxCell id="wFx2M5FxrkZjJIWYtE-n-4" value="" style="endArrow=classic;html=1;rounded=0;exitX=0.5;exitY=1;exitDx=0;exitDy=0;" edge="1" parent="WIyWlLk6GJQsqaUBKTNV-1">
          <mxGeometry width="50" height="50" relative="1" as="geometry">
            <mxPoint x="308.41" y="264" as="sourcePoint" />
            <mxPoint x="308" y="294" as="targetPoint" />
          </mxGeometry>
        </mxCell>
        <mxCell id="wFx2M5FxrkZjJIWYtE-n-6" value="allow access" style="rounded=0;whiteSpace=wrap;html=1;" vertex="1" parent="WIyWlLk6GJQsqaUBKTNV-1">
          <mxGeometry x="249" y="404" width="120" height="60" as="geometry" />
        </mxCell>
        <mxCell id="wFx2M5FxrkZjJIWYtE-n-7" value="terminate account?" style="rhombus;whiteSpace=wrap;html=1;" vertex="1" parent="WIyWlLk6GJQsqaUBKTNV-1">
          <mxGeometry x="269" y="494" width="80" height="80" as="geometry" />
        </mxCell>
        <mxCell id="wFx2M5FxrkZjJIWYtE-n-8" value="" style="endArrow=classic;html=1;rounded=0;exitX=0.5;exitY=1;exitDx=0;exitDy=0;" edge="1" parent="WIyWlLk6GJQsqaUBKTNV-1">
          <mxGeometry width="50" height="50" relative="1" as="geometry">
            <mxPoint x="308.82000000000005" y="374" as="sourcePoint" />
            <mxPoint x="308.41" y="404" as="targetPoint" />
          </mxGeometry>
        </mxCell>
        <mxCell id="wFx2M5FxrkZjJIWYtE-n-9" value="" style="endArrow=classic;html=1;rounded=0;exitX=0.5;exitY=1;exitDx=0;exitDy=0;" edge="1" parent="WIyWlLk6GJQsqaUBKTNV-1">
          <mxGeometry width="50" height="50" relative="1" as="geometry">
            <mxPoint x="308.82000000000005" y="464" as="sourcePoint" />
            <mxPoint x="308.41" y="494" as="targetPoint" />
          </mxGeometry>
        </mxCell>
        <mxCell id="wFx2M5FxrkZjJIWYtE-n-10" value="" style="endArrow=classic;html=1;rounded=0;exitX=0.5;exitY=1;exitDx=0;exitDy=0;" edge="1" parent="WIyWlLk6GJQsqaUBKTNV-1">
          <mxGeometry width="50" height="50" relative="1" as="geometry">
            <mxPoint x="308.82000000000005" y="574" as="sourcePoint" />
            <mxPoint x="308.41" y="604" as="targetPoint" />
          </mxGeometry>
        </mxCell>
        <mxCell id="wFx2M5FxrkZjJIWYtE-n-11" value="upload listings, update profile" style="shape=parallelogram;perimeter=parallelogramPerimeter;whiteSpace=wrap;html=1;fixedSize=1;" vertex="1" parent="WIyWlLk6GJQsqaUBKTNV-1">
          <mxGeometry x="249" y="604" width="120" height="60" as="geometry" />
        </mxCell>
        <mxCell id="wFx2M5FxrkZjJIWYtE-n-14" value="" style="endArrow=classic;html=1;rounded=0;exitX=0.5;exitY=1;exitDx=0;exitDy=0;" edge="1" parent="WIyWlLk6GJQsqaUBKTNV-1">
          <mxGeometry width="50" height="50" relative="1" as="geometry">
            <mxPoint x="308.82000000000005" y="754" as="sourcePoint" />
            <mxPoint x="308.41" y="784" as="targetPoint" />
          </mxGeometry>
        </mxCell>
        <mxCell id="wFx2M5FxrkZjJIWYtE-n-15" value="deny access" style="rounded=0;whiteSpace=wrap;html=1;" vertex="1" parent="WIyWlLk6GJQsqaUBKTNV-1">
          <mxGeometry x="39" y="574" width="120" height="60" as="geometry" />
        </mxCell>
        <mxCell id="wFx2M5FxrkZjJIWYtE-n-16" value="" style="endArrow=classic;html=1;rounded=0;exitX=0;exitY=0.5;exitDx=0;exitDy=0;entryX=0.5;entryY=0;entryDx=0;entryDy=0;" edge="1" parent="WIyWlLk6GJQsqaUBKTNV-1" source="wFx2M5FxrkZjJIWYtE-n-7" target="wFx2M5FxrkZjJIWYtE-n-15">
          <mxGeometry width="50" height="50" relative="1" as="geometry">
            <mxPoint x="189" y="544" as="sourcePoint" />
            <mxPoint x="109" y="534" as="targetPoint" />
            <Array as="points">
              <mxPoint x="99" y="534" />
            </Array>
          </mxGeometry>
        </mxCell>
        <mxCell id="wFx2M5FxrkZjJIWYtE-n-17" value="create, edit and delete listings" style="rounded=0;whiteSpace=wrap;html=1;" vertex="1" parent="WIyWlLk6GJQsqaUBKTNV-1">
          <mxGeometry x="249" y="694" width="120" height="60" as="geometry" />
        </mxCell>
        <mxCell id="wFx2M5FxrkZjJIWYtE-n-61" style="edgeStyle=orthogonalEdgeStyle;rounded=0;orthogonalLoop=1;jettySize=auto;html=1;exitX=0.5;exitY=1;exitDx=0;exitDy=0;entryX=0;entryY=0.5;entryDx=0;entryDy=0;" edge="1" parent="WIyWlLk6GJQsqaUBKTNV-1" source="wFx2M5FxrkZjJIWYtE-n-18" target="wFx2M5FxrkZjJIWYtE-n-58">
          <mxGeometry relative="1" as="geometry" />
        </mxCell>
        <mxCell id="wFx2M5FxrkZjJIWYtE-n-18" value="listing purchased" style="shape=parallelogram;perimeter=parallelogramPerimeter;whiteSpace=wrap;html=1;fixedSize=1;" vertex="1" parent="WIyWlLk6GJQsqaUBKTNV-1">
          <mxGeometry x="249" y="784" width="120" height="60" as="geometry" />
        </mxCell>
        <mxCell id="wFx2M5FxrkZjJIWYtE-n-19" value="" style="endArrow=classic;html=1;rounded=0;exitX=0.5;exitY=1;exitDx=0;exitDy=0;" edge="1" parent="WIyWlLk6GJQsqaUBKTNV-1">
          <mxGeometry width="50" height="50" relative="1" as="geometry">
            <mxPoint x="308.82000000000005" y="664" as="sourcePoint" />
            <mxPoint x="308.41" y="694" as="targetPoint" />
          </mxGeometry>
        </mxCell>
        <mxCell id="wFx2M5FxrkZjJIWYtE-n-22" value="STOP" style="ellipse;whiteSpace=wrap;html=1;" vertex="1" parent="WIyWlLk6GJQsqaUBKTNV-1">
          <mxGeometry x="49" y="664" width="100" height="60" as="geometry" />
        </mxCell>
        <mxCell id="wFx2M5FxrkZjJIWYtE-n-23" value="" style="endArrow=classic;html=1;rounded=0;exitX=0.5;exitY=1;exitDx=0;exitDy=0;" edge="1" parent="WIyWlLk6GJQsqaUBKTNV-1">
          <mxGeometry width="50" height="50" relative="1" as="geometry">
            <mxPoint x="98.82000000000005" y="634" as="sourcePoint" />
            <mxPoint x="98.41000000000003" y="664" as="targetPoint" />
          </mxGeometry>
        </mxCell>
        <mxCell id="wFx2M5FxrkZjJIWYtE-n-26" value="" style="endArrow=classic;html=1;rounded=0;entryX=0.5;entryY=0;entryDx=0;entryDy=0;" edge="1" parent="WIyWlLk6GJQsqaUBKTNV-1" target="wFx2M5FxrkZjJIWYtE-n-24">
          <mxGeometry width="50" height="50" relative="1" as="geometry">
            <mxPoint x="320" y="110" as="sourcePoint" />
            <mxPoint x="419" y="114" as="targetPoint" />
          </mxGeometry>
        </mxCell>
        <mxCell id="wFx2M5FxrkZjJIWYtE-n-28" value="" style="endArrow=classic;html=1;rounded=0;exitX=0.5;exitY=1;exitDx=0;exitDy=0;" edge="1" parent="WIyWlLk6GJQsqaUBKTNV-1" source="wFx2M5FxrkZjJIWYtE-n-24">
          <mxGeometry width="50" height="50" relative="1" as="geometry">
            <mxPoint x="318.41" y="170" as="sourcePoint" />
            <mxPoint x="320" y="200" as="targetPoint" />
          </mxGeometry>
        </mxCell>
        <mxCell id="wFx2M5FxrkZjJIWYtE-n-29" value="" style="endArrow=classic;html=1;rounded=0;exitX=0.5;exitY=1;exitDx=0;exitDy=0;" edge="1" parent="WIyWlLk6GJQsqaUBKTNV-1" target="wFx2M5FxrkZjJIWYtE-n-24">
          <mxGeometry width="50" height="50" relative="1" as="geometry">
            <mxPoint x="318.41" y="170" as="sourcePoint" />
            <mxPoint x="318" y="200" as="targetPoint" />
          </mxGeometry>
        </mxCell>
        <mxCell id="wFx2M5FxrkZjJIWYtE-n-24" value="" style="ellipse;whiteSpace=wrap;html=1;aspect=fixed;" vertex="1" parent="WIyWlLk6GJQsqaUBKTNV-1">
          <mxGeometry x="310" y="150" width="20" height="20" as="geometry" />
        </mxCell>
        <mxCell id="wFx2M5FxrkZjJIWYtE-n-60" style="edgeStyle=orthogonalEdgeStyle;rounded=0;orthogonalLoop=1;jettySize=auto;html=1;exitX=0.5;exitY=0;exitDx=0;exitDy=0;entryX=1;entryY=0.5;entryDx=0;entryDy=0;" edge="1" parent="WIyWlLk6GJQsqaUBKTNV-1" source="wFx2M5FxrkZjJIWYtE-n-37" target="wFx2M5FxrkZjJIWYtE-n-24">
          <mxGeometry relative="1" as="geometry" />
        </mxCell>
        <mxCell id="wFx2M5FxrkZjJIWYtE-n-37" value="are you a buyer?" style="rhombus;whiteSpace=wrap;html=1;" vertex="1" parent="WIyWlLk6GJQsqaUBKTNV-1">
          <mxGeometry x="554" y="297" width="80" height="80" as="geometry" />
        </mxCell>
        <mxCell id="wFx2M5FxrkZjJIWYtE-n-38" value="allow access" style="rounded=0;whiteSpace=wrap;html=1;" vertex="1" parent="WIyWlLk6GJQsqaUBKTNV-1">
          <mxGeometry x="534" y="407" width="120" height="60" as="geometry" />
        </mxCell>
        <mxCell id="wFx2M5FxrkZjJIWYtE-n-39" value="terminate account?" style="rhombus;whiteSpace=wrap;html=1;" vertex="1" parent="WIyWlLk6GJQsqaUBKTNV-1">
          <mxGeometry x="554" y="497" width="80" height="80" as="geometry" />
        </mxCell>
        <mxCell id="wFx2M5FxrkZjJIWYtE-n-40" value="" style="endArrow=classic;html=1;rounded=0;exitX=0.5;exitY=1;exitDx=0;exitDy=0;" edge="1" parent="WIyWlLk6GJQsqaUBKTNV-1">
          <mxGeometry width="50" height="50" relative="1" as="geometry">
            <mxPoint x="593.82" y="377" as="sourcePoint" />
            <mxPoint x="593.4100000000001" y="407" as="targetPoint" />
          </mxGeometry>
        </mxCell>
        <mxCell id="wFx2M5FxrkZjJIWYtE-n-41" value="" style="endArrow=classic;html=1;rounded=0;exitX=0.5;exitY=1;exitDx=0;exitDy=0;" edge="1" parent="WIyWlLk6GJQsqaUBKTNV-1">
          <mxGeometry width="50" height="50" relative="1" as="geometry">
            <mxPoint x="593.82" y="467" as="sourcePoint" />
            <mxPoint x="593.4100000000001" y="497" as="targetPoint" />
          </mxGeometry>
        </mxCell>
        <mxCell id="wFx2M5FxrkZjJIWYtE-n-42" value="" style="endArrow=classic;html=1;rounded=0;exitX=0.5;exitY=1;exitDx=0;exitDy=0;" edge="1" parent="WIyWlLk6GJQsqaUBKTNV-1">
          <mxGeometry width="50" height="50" relative="1" as="geometry">
            <mxPoint x="593.82" y="577" as="sourcePoint" />
            <mxPoint x="593.4100000000001" y="607" as="targetPoint" />
          </mxGeometry>
        </mxCell>
        <mxCell id="wFx2M5FxrkZjJIWYtE-n-43" value="update profile&lt;br&gt;search listings" style="shape=parallelogram;perimeter=parallelogramPerimeter;whiteSpace=wrap;html=1;fixedSize=1;" vertex="1" parent="WIyWlLk6GJQsqaUBKTNV-1">
          <mxGeometry x="534" y="607" width="120" height="60" as="geometry" />
        </mxCell>
        <mxCell id="wFx2M5FxrkZjJIWYtE-n-44" value="" style="endArrow=classic;html=1;rounded=0;exitX=0.5;exitY=1;exitDx=0;exitDy=0;" edge="1" parent="WIyWlLk6GJQsqaUBKTNV-1">
          <mxGeometry width="50" height="50" relative="1" as="geometry">
            <mxPoint x="593.82" y="757" as="sourcePoint" />
            <mxPoint x="593.4100000000001" y="787" as="targetPoint" />
          </mxGeometry>
        </mxCell>
        <mxCell id="wFx2M5FxrkZjJIWYtE-n-47" value="purchasing house" style="rounded=0;whiteSpace=wrap;html=1;" vertex="1" parent="WIyWlLk6GJQsqaUBKTNV-1">
          <mxGeometry x="534" y="697" width="120" height="60" as="geometry" />
        </mxCell>
        <mxCell id="wFx2M5FxrkZjJIWYtE-n-48" value="listing owned" style="shape=parallelogram;perimeter=parallelogramPerimeter;whiteSpace=wrap;html=1;fixedSize=1;" vertex="1" parent="WIyWlLk6GJQsqaUBKTNV-1">
          <mxGeometry x="534" y="787" width="120" height="60" as="geometry" />
        </mxCell>
        <mxCell id="wFx2M5FxrkZjJIWYtE-n-49" value="" style="endArrow=classic;html=1;rounded=0;exitX=0.5;exitY=1;exitDx=0;exitDy=0;" edge="1" parent="WIyWlLk6GJQsqaUBKTNV-1">
          <mxGeometry width="50" height="50" relative="1" as="geometry">
            <mxPoint x="593.82" y="667" as="sourcePoint" />
            <mxPoint x="593.4100000000001" y="697" as="targetPoint" />
          </mxGeometry>
        </mxCell>
        <mxCell id="wFx2M5FxrkZjJIWYtE-n-50" value="" style="endArrow=classic;html=1;rounded=0;exitX=0.5;exitY=1;exitDx=0;exitDy=0;" edge="1" parent="WIyWlLk6GJQsqaUBKTNV-1">
          <mxGeometry width="50" height="50" relative="1" as="geometry">
            <mxPoint x="593.82" y="847" as="sourcePoint" />
            <mxPoint x="593.4100000000001" y="877" as="targetPoint" />
          </mxGeometry>
        </mxCell>
        <mxCell id="wFx2M5FxrkZjJIWYtE-n-51" value="STOP" style="ellipse;whiteSpace=wrap;html=1;" vertex="1" parent="WIyWlLk6GJQsqaUBKTNV-1">
          <mxGeometry x="544" y="960" width="100" height="60" as="geometry" />
        </mxCell>
        <mxCell id="wFx2M5FxrkZjJIWYtE-n-65" style="edgeStyle=orthogonalEdgeStyle;rounded=0;orthogonalLoop=1;jettySize=auto;html=1;exitX=0.5;exitY=1;exitDx=0;exitDy=0;entryX=1;entryY=0.5;entryDx=0;entryDy=0;" edge="1" parent="WIyWlLk6GJQsqaUBKTNV-1" source="wFx2M5FxrkZjJIWYtE-n-54" target="wFx2M5FxrkZjJIWYtE-n-58">
          <mxGeometry relative="1" as="geometry" />
        </mxCell>
        <mxCell id="wFx2M5FxrkZjJIWYtE-n-54" value="deny access" style="rounded=0;whiteSpace=wrap;html=1;" vertex="1" parent="WIyWlLk6GJQsqaUBKTNV-1">
          <mxGeometry x="680" y="577" width="120" height="60" as="geometry" />
        </mxCell>
        <mxCell id="wFx2M5FxrkZjJIWYtE-n-57" value="" style="endArrow=classic;html=1;rounded=0;exitX=0;exitY=0.5;exitDx=0;exitDy=0;entryX=0.5;entryY=0;entryDx=0;entryDy=0;" edge="1" parent="WIyWlLk6GJQsqaUBKTNV-1" target="wFx2M5FxrkZjJIWYtE-n-54">
          <mxGeometry width="50" height="50" relative="1" as="geometry">
            <mxPoint x="634" y="537" as="sourcePoint" />
            <mxPoint x="464" y="577" as="targetPoint" />
            <Array as="points">
              <mxPoint x="740" y="537" />
            </Array>
          </mxGeometry>
        </mxCell>
        <mxCell id="wFx2M5FxrkZjJIWYtE-n-64" style="edgeStyle=orthogonalEdgeStyle;rounded=0;orthogonalLoop=1;jettySize=auto;html=1;exitX=0.5;exitY=1;exitDx=0;exitDy=0;entryX=0.5;entryY=0;entryDx=0;entryDy=0;" edge="1" parent="WIyWlLk6GJQsqaUBKTNV-1" source="wFx2M5FxrkZjJIWYtE-n-58" target="wFx2M5FxrkZjJIWYtE-n-51">
          <mxGeometry relative="1" as="geometry" />
        </mxCell>
        <mxCell id="wFx2M5FxrkZjJIWYtE-n-58" value="" style="ellipse;whiteSpace=wrap;html=1;aspect=fixed;" vertex="1" parent="WIyWlLk6GJQsqaUBKTNV-1">
          <mxGeometry x="584" y="880" width="20" height="20" as="geometry" />
        </mxCell>
      </root>
    </mxGraphModel>
  </diagram>
</mxfile>
